# Blender v3.1.2 OBJ File: ''
# www.blender.org
mtllib grass.mtl
o Cube
v -1.000000 1.000000 -1.000000
v 1.000000 1.000000 -1.000000
v -1.000000 1.000000 1.000000
v 1.000000 1.000000 1.000000
v -1.000000 -1.000000 -1.000000
v 1.000000 -1.000000 -1.000000
v -1.000000 -1.000000 1.000000
v 1.000000 -1.000000 1.000000
vt 0.495241 0.662322
vt 0.494532 0.999056
vt 0.255173 0.999523
vt 0.255881 0.662789
vt 0.255190 0.342972
vt 0.000968 0.663432
vt 0.000278 0.343616
vt 1.000103 0.339015
vt 1.000793 0.658832
vt 0.742053 0.659989
vt 0.741362 0.340172
vt 0.496657 -0.001406
vt 0.494550 0.342505
vt 0.257297 -0.000939
vn -1.0000 -0.0000 0.0000
vn -0.0000 0.0000 1.0000
vn 0.0000 -1.0000 0.0000
vn 1.0000 0.0000 0.0000
vn -0.0000 1.0000 0.0000
vn 0.0000 0.0000 -1.0000
usemtl Material
s off
f 1/1/1 5/2/1 7/3/1 3/4/1
f 4/5/2 3/4/2 7/6/2 8/7/2
f 8/8/3 7/9/3 5/10/3 6/11/3
f 6/12/4 2/13/4 4/5/4 8/14/4
f 2/13/5 1/1/5 3/4/5 4/5/5
f 6/11/6 5/10/6 1/1/6 2/13/6
