# Blender v3.1.2 OBJ File: ''
# www.blender.org
mtllib arrow.mtl
o aarow_Mesh
v 0.033997 -0.002626 0.002730
v 0.031281 -0.005350 0.002730
v 0.033990 0.002813 0.002730
v 0.031274 0.000090 0.002730
v 0.028558 -0.002634 0.002730
v 0.025842 -0.005357 0.002730
v 0.031267 0.005529 0.002730
v 0.028551 0.002806 0.002730
v 0.025835 0.000082 0.002730
v 0.023119 -0.002641 0.002730
v 0.020403 -0.005365 0.002730
v 0.028543 0.008245 0.002730
v 0.025827 0.005521 0.002730
v 0.023111 0.002798 0.002730
v 0.020395 0.000075 0.002730
v 0.017680 -0.002649 0.002730
v 0.023104 0.008237 0.002730
v 0.020388 0.005514 0.002730
v 0.017672 0.002791 0.002730
v 0.014956 0.000067 0.002730
v 0.012240 -0.002656 0.002730
v 0.014949 0.005507 0.002730
v 0.012233 0.002783 0.002730
v 0.009517 0.000060 0.002730
v 0.006801 -0.002664 0.002730
v 0.009509 0.005499 0.002730
v 0.006793 0.002776 0.002730
v 0.004078 0.000052 0.002730
v 0.001362 -0.002671 0.002730
v 0.004070 0.005492 0.002730
v 0.001354 0.002768 0.002730
v -0.001362 0.000045 0.002730
v -0.004078 -0.002679 0.002730
v -0.001369 0.005484 0.002730
v -0.004085 0.002761 0.002730
v -0.006801 0.000037 0.002730
v -0.009517 -0.002686 0.002730
v -0.012233 -0.005409 0.002730
v -0.014949 -0.008133 0.002730
v -0.006808 0.005477 0.002730
v -0.009524 0.002753 0.002730
v -0.012240 0.000030 0.002730
v -0.014956 -0.002693 0.002730
v -0.017672 -0.005417 0.002730
v -0.020388 -0.008140 0.002730
v -0.012248 0.005469 0.002730
v -0.014964 0.002746 0.002730
v -0.017680 0.000022 0.002730
v -0.020395 -0.002701 0.002730
v -0.023111 -0.005424 0.002730
v -0.014971 0.008185 0.002730
v -0.017687 0.005462 0.002730
v -0.020403 0.002738 0.002730
v -0.023119 0.000015 0.002730
v -0.025835 -0.002708 0.002730
v -0.028551 -0.005432 0.002730
v -0.017694 0.010901 0.002730
v -0.020410 0.008178 0.002730
v -0.023126 0.005454 0.002730
v -0.025842 0.002731 0.002730
v -0.028558 0.000007 0.002730
v -0.031274 -0.002716 0.002730
v -0.025850 0.008170 0.002730
v -0.028566 0.005447 0.002730
v -0.031281 0.002723 0.002730
v -0.033997 -0.000000 0.002730
v 0.033997 -0.002626 -0.002730
v 0.031281 -0.005350 -0.002730
v 0.028558 -0.002634 -0.002730
v 0.031274 0.000090 -0.002730
v 0.033990 0.002813 -0.002730
v 0.028551 0.002806 -0.002730
v 0.031267 0.005529 -0.002730
v 0.025835 0.000082 -0.002730
v 0.025842 -0.005357 -0.002730
v 0.023119 -0.002641 -0.002730
v 0.025827 0.005521 -0.002730
v 0.028543 0.008245 -0.002730
v 0.023111 0.002798 -0.002730
v 0.020395 0.000075 -0.002730
v 0.020403 -0.005365 -0.002730
v 0.017680 -0.002649 -0.002730
v 0.020388 0.005514 -0.002730
v 0.023104 0.008237 -0.002730
v 0.017672 0.002791 -0.002730
v 0.014956 0.000067 -0.002730
v 0.012233 0.002783 -0.002730
v 0.014949 0.005507 -0.002730
v 0.012240 -0.002656 -0.002730
v 0.009517 0.000060 -0.002730
v 0.006793 0.002776 -0.002730
v 0.009509 0.005499 -0.002730
v 0.006801 -0.002664 -0.002730
v 0.004078 0.000052 -0.002730
v 0.001354 0.002768 -0.002730
v 0.004070 0.005492 -0.002730
v 0.001362 -0.002671 -0.002730
v -0.001362 0.000045 -0.002730
v -0.004085 0.002761 -0.002730
v -0.001369 0.005484 -0.002730
v -0.004078 -0.002679 -0.002730
v -0.006801 0.000037 -0.002730
v -0.009524 0.002753 -0.002730
v -0.006808 0.005477 -0.002730
v -0.009517 -0.002686 -0.002730
v -0.012240 0.000030 -0.002730
v -0.012233 -0.005409 -0.002730
v -0.014949 -0.008133 -0.002730
v -0.017672 -0.005417 -0.002730
v -0.014956 -0.002693 -0.002730
v -0.014964 0.002746 -0.002730
v -0.012248 0.005469 -0.002730
v -0.017680 0.000022 -0.002730
v -0.020395 -0.002701 -0.002730
v -0.020388 -0.008140 -0.002730
v -0.023111 -0.005424 -0.002730
v -0.017687 0.005462 -0.002730
v -0.014971 0.008185 -0.002730
v -0.020403 0.002738 -0.002730
v -0.023119 0.000015 -0.002730
v -0.025835 -0.002708 -0.002730
v -0.020410 0.008178 -0.002730
v -0.017694 0.010901 -0.002730
v -0.023126 0.005454 -0.002730
v -0.025842 0.002731 -0.002730
v -0.028558 0.000007 -0.002730
v -0.028551 -0.005432 -0.002730
v -0.031274 -0.002716 -0.002730
v -0.028566 0.005447 -0.002730
v -0.025850 0.008170 -0.002730
v -0.031281 0.002723 -0.002730
v -0.033997 0.000000 -0.002730
vt 0.076923 0.000000
vt 0.153846 0.000000
vt 0.153846 0.076525
vt 0.076923 0.076525
vt 0.000000 0.076525
vt 0.076923 0.153413
vt 0.000000 0.153413
vt 0.153846 0.153413
vt 0.230769 0.076525
vt 0.230769 0.153413
vt 0.076923 0.230035
vt 0.000000 0.230035
vt 0.153846 0.230035
vt 0.230769 0.230035
vt 0.307692 0.153413
vt 0.307692 0.230035
vt 0.153846 0.307217
vt 0.076923 0.307217
vt 0.230769 0.307217
vt 0.307692 0.307217
vt 0.307692 0.384369
vt 0.230769 0.384369
vt 0.384615 0.307217
vt 0.384615 0.384369
vt 0.384615 0.460756
vt 0.307692 0.460756
vt 0.461538 0.384369
vt 0.461538 0.460756
vt 0.461538 0.538675
vt 0.384615 0.538675
vt 0.538462 0.460756
vt 0.538462 0.538675
vt 0.538462 0.616622
vt 0.461538 0.616622
vt 0.615385 0.538675
vt 0.615385 0.616622
vt 0.615385 0.692980
vt 0.538462 0.692980
vt 0.692308 0.616622
vt 0.692308 0.692980
vt 0.769231 0.616622
vt 0.846154 0.616622
vt 0.846154 0.692980
vt 0.769231 0.692980
vt 0.692308 0.769395
vt 0.615385 0.769395
vt 0.769231 0.769395
vt 0.846154 0.769395
vt 0.923077 0.692980
vt 0.923077 0.769395
vt 0.692308 0.848109
vt 0.615385 0.848109
vt 0.769231 0.848109
vt 0.846154 0.848109
vt 0.923077 0.848109
vt 0.692308 0.923077
vt 0.615385 0.923077
vt 0.769231 0.923077
vt 0.846154 0.923077
vt 0.923077 0.923077
vt 1.000000 0.848109
vt 1.000000 0.923077
vt 0.846154 1.000000
vt 0.769231 1.000000
vt 0.923077 1.000000
vt 1.000000 1.000000
vt 0.076923 0.000000
vt 0.076923 0.076525
vt 0.153846 0.076525
vt 0.153846 0.000000
vt 0.000000 0.076525
vt 0.000000 0.153413
vt 0.076923 0.153413
vt 0.153846 0.153413
vt 0.230769 0.153413
vt 0.230769 0.076525
vt 0.000000 0.230035
vt 0.076923 0.230035
vt 0.153846 0.230035
vt 0.230769 0.230035
vt 0.307692 0.230035
vt 0.307692 0.153413
vt 0.076923 0.307217
vt 0.153846 0.307217
vt 0.230769 0.307217
vt 0.307692 0.307217
vt 0.230769 0.384369
vt 0.307692 0.384369
vt 0.384615 0.384369
vt 0.384615 0.307217
vt 0.307692 0.460756
vt 0.384615 0.460756
vt 0.461538 0.460756
vt 0.461538 0.384369
vt 0.384615 0.538675
vt 0.461538 0.538675
vt 0.538462 0.538675
vt 0.538462 0.460756
vt 0.461538 0.616622
vt 0.538462 0.616622
vt 0.615385 0.616622
vt 0.615385 0.538675
vt 0.538462 0.692980
vt 0.615385 0.692980
vt 0.692308 0.692980
vt 0.692308 0.616622
vt 0.769231 0.616622
vt 0.769231 0.692980
vt 0.846154 0.692980
vt 0.846154 0.616622
vt 0.615385 0.769395
vt 0.692308 0.769395
vt 0.769231 0.769395
vt 0.846154 0.769395
vt 0.923077 0.769395
vt 0.923077 0.692980
vt 0.615385 0.848109
vt 0.692308 0.848109
vt 0.769231 0.848109
vt 0.846154 0.848109
vt 0.923077 0.848109
vt 0.615385 0.923077
vt 0.692308 0.923077
vt 0.769231 0.923077
vt 0.846154 0.923077
vt 0.923077 0.923077
vt 1.000000 0.923077
vt 1.000000 0.848109
vt 0.769231 1.000000
vt 0.846154 1.000000
vt 0.923077 1.000000
vt 1.000000 1.000000
vn 0.0000 -0.0000 -1.0000
vn 0.0000 -0.0000 1.0000
vn 0.7081 -0.7061 -0.0000
vn -0.7061 -0.7081 0.0000
vn 0.7061 0.7081 0.0000
vn -0.7081 0.7061 0.0000
usemtl aiStandardSurface2
s 1
f 67/1/1 68/2/1 69/3/1 70/4/1
f 71/5/1 70/4/1 72/6/1 73/7/1
f 70/4/1 69/3/1 74/8/1 72/6/1
f 69/3/1 75/9/1 76/10/1 74/8/1
f 73/7/1 72/6/1 77/11/1 78/12/1
f 72/6/1 74/8/1 79/13/1 77/11/1
f 74/8/1 76/10/1 80/14/1 79/13/1
f 76/10/1 81/15/1 82/16/1 80/14/1
f 77/11/1 79/13/1 83/17/1 84/18/1
f 79/13/1 80/14/1 85/19/1 83/17/1
f 80/14/1 82/16/1 86/20/1 85/19/1
f 85/19/1 86/20/1 87/21/1 88/22/1
f 86/20/1 89/23/1 90/24/1 87/21/1
f 87/21/1 90/24/1 91/25/1 92/26/1
f 90/24/1 93/27/1 94/28/1 91/25/1
f 91/25/1 94/28/1 95/29/1 96/30/1
f 94/28/1 97/31/1 98/32/1 95/29/1
f 95/29/1 98/32/1 99/33/1 100/34/1
f 98/32/1 101/35/1 102/36/1 99/33/1
f 99/33/1 102/36/1 103/37/1 104/38/1
f 102/36/1 105/39/1 106/40/1 103/37/1
f 107/41/1 108/42/1 109/43/1 110/44/1
f 103/37/1 106/40/1 111/45/1 112/46/1
f 106/40/1 110/44/1 113/47/1 111/45/1
f 110/44/1 109/43/1 114/48/1 113/47/1
f 109/43/1 115/49/1 116/50/1 114/48/1
f 112/46/1 111/45/1 117/51/1 118/52/1
f 111/45/1 113/47/1 119/53/1 117/51/1
f 113/47/1 114/48/1 120/54/1 119/53/1
f 114/48/1 116/50/1 121/55/1 120/54/1
f 118/52/1 117/51/1 122/56/1 123/57/1
f 117/51/1 119/53/1 124/58/1 122/56/1
f 119/53/1 120/54/1 125/59/1 124/58/1
f 120/54/1 121/55/1 126/60/1 125/59/1
f 121/55/1 127/61/1 128/62/1 126/60/1
f 124/58/1 125/59/1 129/63/1 130/64/1
f 125/59/1 126/60/1 131/65/1 129/63/1
f 126/60/1 128/62/1 132/66/1 131/65/1
f 1/67/2 4/68/2 5/69/2 2/70/2
f 3/71/2 7/72/2 8/73/2 4/68/2
f 4/68/2 8/73/2 9/74/2 5/69/2
f 5/69/2 9/74/2 10/75/2 6/76/2
f 7/72/2 12/77/2 13/78/2 8/73/2
f 8/73/2 13/78/2 14/79/2 9/74/2
f 9/74/2 14/79/2 15/80/2 10/75/2
f 10/75/2 15/80/2 16/81/2 11/82/2
f 13/78/2 17/83/2 18/84/2 14/79/2
f 14/79/2 18/84/2 19/85/2 15/80/2
f 15/80/2 19/85/2 20/86/2 16/81/2
f 19/85/2 22/87/2 23/88/2 20/86/2
f 20/86/2 23/88/2 24/89/2 21/90/2
f 23/88/2 26/91/2 27/92/2 24/89/2
f 24/89/2 27/92/2 28/93/2 25/94/2
f 27/92/2 30/95/2 31/96/2 28/93/2
f 28/93/2 31/96/2 32/97/2 29/98/2
f 31/96/2 34/99/2 35/100/2 32/97/2
f 32/97/2 35/100/2 36/101/2 33/102/2
f 35/100/2 40/103/2 41/104/2 36/101/2
f 36/101/2 41/104/2 42/105/2 37/106/2
f 38/107/2 43/108/2 44/109/2 39/110/2
f 41/104/2 46/111/2 47/112/2 42/105/2
f 42/105/2 47/112/2 48/113/2 43/108/2
f 43/108/2 48/113/2 49/114/2 44/109/2
f 44/109/2 49/114/2 50/115/2 45/116/2
f 46/111/2 51/117/2 52/118/2 47/112/2
f 47/112/2 52/118/2 53/119/2 48/113/2
f 48/113/2 53/119/2 54/120/2 49/114/2
f 49/114/2 54/120/2 55/121/2 50/115/2
f 51/117/2 57/122/2 58/123/2 52/118/2
f 52/118/2 58/123/2 59/124/2 53/119/2
f 53/119/2 59/124/2 60/125/2 54/120/2
f 54/120/2 60/125/2 61/126/2 55/121/2
f 55/121/2 61/126/2 62/127/2 56/128/2
f 59/124/2 63/129/2 64/130/2 60/125/2
f 60/125/2 64/130/2 65/131/2 61/126/2
f 61/126/2 65/131/2 66/132/2 62/127/2
f 1/67/3 2/70/3 68/2/3 67/1/3
f 2/70/4 5/69/4 69/3/4 68/2/4
f 4/68/5 1/67/5 67/1/5 70/4/5
f 3/71/3 4/68/3 70/4/3 71/5/3
f 7/72/5 3/71/5 71/5/5 73/7/5
f 5/69/3 6/76/3 75/9/3 69/3/3
f 6/76/4 10/75/4 76/10/4 75/9/4
f 13/78/6 12/77/6 78/12/6 77/11/6
f 12/77/5 7/72/5 73/7/5 78/12/5
f 10/75/3 11/82/3 81/15/3 76/10/3
f 11/82/4 16/81/4 82/16/4 81/15/4
f 18/84/6 17/83/6 84/18/6 83/17/6
f 17/83/5 13/78/5 77/11/5 84/18/5
f 19/85/6 18/84/6 83/17/6 85/19/6
f 16/81/4 20/86/4 86/20/4 82/16/4
f 23/88/6 22/87/6 88/22/6 87/21/6
f 22/87/5 19/85/5 85/19/5 88/22/5
f 20/86/3 21/90/3 89/23/3 86/20/3
f 21/90/4 24/89/4 90/24/4 89/23/4
f 27/92/6 26/91/6 92/26/6 91/25/6
f 26/91/5 23/88/5 87/21/5 92/26/5
f 24/89/3 25/94/3 93/27/3 90/24/3
f 25/94/4 28/93/4 94/28/4 93/27/4
f 31/96/6 30/95/6 96/30/6 95/29/6
f 30/95/5 27/92/5 91/25/5 96/30/5
f 28/93/3 29/98/3 97/31/3 94/28/3
f 29/98/4 32/97/4 98/32/4 97/31/4
f 35/100/6 34/99/6 100/34/6 99/33/6
f 34/99/5 31/96/5 95/29/5 100/34/5
f 32/97/3 33/102/3 101/35/3 98/32/3
f 33/102/4 36/101/4 102/36/4 101/35/4
f 41/104/6 40/103/6 104/38/6 103/37/6
f 40/103/5 35/100/5 99/33/5 104/38/5
f 36/101/3 37/106/3 105/39/3 102/36/3
f 37/106/4 42/105/4 106/40/4 105/39/4
f 38/107/3 39/110/3 108/42/3 107/41/3
f 39/110/4 44/109/4 109/43/4 108/42/4
f 43/108/5 38/107/5 107/41/5 110/44/5
f 46/111/5 41/104/5 103/37/5 112/46/5
f 42/105/3 43/108/3 110/44/3 106/40/3
f 44/109/3 45/116/3 115/49/3 109/43/3
f 45/116/4 50/115/4 116/50/4 115/49/4
f 51/117/5 46/111/5 112/46/5 118/52/5
f 50/115/4 55/121/4 121/55/4 116/50/4
f 58/123/6 57/122/6 123/57/6 122/56/6
f 57/122/5 51/117/5 118/52/5 123/57/5
f 59/124/6 58/123/6 122/56/6 124/58/6
f 55/121/3 56/128/3 127/61/3 121/55/3
f 56/128/4 62/127/4 128/62/4 127/61/4
f 64/130/6 63/129/6 130/64/6 129/63/6
f 63/129/5 59/124/5 124/58/5 130/64/5
f 65/131/6 64/130/6 129/63/6 131/65/6
f 62/127/4 66/132/4 132/66/4 128/62/4
f 66/132/6 65/131/6 131/65/6 132/66/6
