# Blender v3.1.2 OBJ File: ''
# www.blender.org
mtllib tnt.mtl
o Cube
v -1.000000 -1.000000 -1.000000
v -1.000000 1.000000 -1.000000
v -1.000000 -1.000000 1.000000
v -1.000000 1.000000 1.000000
v 1.000000 -1.000000 -1.000000
v 1.000000 1.000000 -1.000000
v 1.000000 -1.000000 1.000000
v 1.000000 1.000000 1.000000
vt 0.499680 0.331342
vt 0.499042 -0.001817
vt 0.750601 -0.002456
vt 0.751240 0.330702
vt 0.751879 0.663861
vt 1.001239 0.332142
vt 1.001878 0.665301
vt 0.001881 0.665779
vt 0.001242 0.332620
vt 0.251241 0.334060
vt 0.251880 0.667219
vt 0.500959 0.997659
vt 0.500320 0.664500
vt 0.752518 0.997020
vn -0.0000 -1.0000 0.0000
vn 0.0000 0.0000 1.0000
vn 1.0000 -0.0000 0.0000
vn 0.0000 1.0000 0.0000
vn -1.0000 0.0000 0.0000
vn 0.0000 0.0000 -1.0000
usemtl Material
s off
f 1/1/1 5/2/1 7/3/1 3/4/1
f 4/5/2 3/4/2 7/6/2 8/7/2
f 8/8/3 7/9/3 5/10/3 6/11/3
f 6/12/4 2/13/4 4/5/4 8/14/4
f 2/13/5 1/1/5 3/4/5 4/5/5
f 6/11/6 5/10/6 1/1/6 2/13/6
